# xmcd
#
# Track frame offsets:
#	150
#	13018
#	28377
#	42854
#	58637
#	72632
#	89835
#	104563
#	121759
#	139658
#	158860
#	174619
#	188825
#	205867
#	219697
#	236669
#
# Disc length: 3395
#
# Revision: 1
# Processed by: cddbd v1.5.2PL0 Copyright (c) Steve Scherf et al.
# Submitted via: kJams 2 (development) 2.0patch37
#
DISCID=f20d4110
DTITLE=Various Artist - Party Tyme Karaoke – Country Hits 20
DYEAR=2017
DGENRE=Karaoke
TTITLE0=Sam Hunt - Body Like a Back Road
TTITLE1=Jon Pardi - Dirty On My Boots
TTITLE2=Keith Urban and Carrie Underwood - The Fighter
TTITLE3=Josh Turner - Hometown Girl
TTITLE4=Florida Georgia Line - God, Your Mama, And Me
TTITLE5=Lauren Alaina - Road Less Traveled
TTITLE6=Dylan Scott - My Girl
TTITLE7=Thomas Rhett and Maren Morris - Craving You
TTITLE8=Brett Eldredge - Wanna Be That Song
TTITLE9=Miranda Lambert - Tin Man
TTITLE10=Darius Rucker - If I Told You
TTITLE11=Lady Antebellum - You Look Good
TTITLE12=Midland - Drinkin' Problem
TTITLE13=Carly Pearce - Every Little Thing
TTITLE14=Cole Swindell - Middle of a Memory
TTITLE15=Kelsea Ballerini - Legends
EXTD=
EXTT0=
EXTT1=
EXTT2=
EXTT3=
EXTT4=
EXTT5=
EXTT6=
EXTT7=
EXTT8=
EXTT9=
EXTT10=
EXTT11=
EXTT12=
EXTT13=
EXTT14=
EXTT15=
PLAYORDER=
